<?xml version="1.0" encoding="UTF-8" standalone="no"?>
<!DOCTYPE svg PUBLIC "-//W3C//DTD SVG 1.1//EN" "http://www.w3.org/Graphics/SVG/1.1/DTD/svg11.dtd">
<svg version="1.1" xmlns="http://www.w3.org/2000/svg" xmlns:xlink="http://www.w3.org/1999/xlink" preserveAspectRatio="xMidYMid meet" viewBox="0 0 512 512" width="512" height="512"><defs><path d="M360.14 182.24L360.14 156.2L151.86 156.2L151.86 182.24L39.05 182.24L39.05 459.93L151.86 459.93L151.86 494.64L360.14 494.64L360.14 459.93L472.95 459.93L472.95 182.24L360.14 182.24Z" id="alTD37uef"></path><path d="M256 190.92C179.32 190.92 117.15 253.08 117.15 329.76C117.15 406.45 179.32 468.61 256 468.61C332.68 468.61 394.85 406.45 394.85 329.76C394.85 253.08 332.68 190.92 256 190.92Z" id="b6PuBDovc"></path><path d="M139 201.81C146.61 194.87 141.64 182.24 131.36 182.24C122.09 182.24 47.98 182.24 38.71 182.24C29.31 182.24 21.69 189.86 21.69 199.25C21.69 223.62 21.69 418.55 21.69 442.91C21.69 452.31 29.31 459.93 38.71 459.93C46.3 459.93 107.04 459.93 114.64 459.93C124.36 459.93 129.39 448.62 123.12 441.17C97.77 411.04 82.44 372.22 82.44 329.76C82.44 279.03 104.27 233.5 139 201.81Z" id="b265nzhQV"></path><path d="M373 201.81C407.73 233.5 429.56 279.03 429.56 329.76C429.56 372.22 414.23 411.04 388.89 441.17C382.62 448.62 387.64 459.93 397.36 459.93C404.96 459.93 465.7 459.93 473.29 459.93C482.69 459.93 490.31 452.31 490.31 442.91C490.31 418.55 490.31 223.62 490.31 199.25C490.31 189.86 482.69 182.24 473.29 182.24C467.11 182.24 436.23 182.24 380.64 182.24C370.48 190.66 367.93 197.18 373 201.81Z" id="bmPnhhpnP"></path><path d="M256 260.34C217.66 260.34 186.58 291.42 186.58 329.76C186.58 368.1 217.66 399.19 256 399.19C294.34 399.19 325.42 368.1 325.42 329.76C325.42 291.42 294.34 260.34 256 260.34Z" id="b7tkpMVWV"></path><path d="M117.15 138.85C117.15 138.85 117.15 138.85 117.15 138.85C117.15 164.88 117.15 179.34 117.15 182.24C117.15 182.24 117.15 182.24 117.15 182.24C75.5 182.24 52.36 182.24 47.73 182.24C47.73 182.24 47.73 182.24 47.73 182.24C47.73 156.2 47.73 141.74 47.73 138.85C47.73 138.85 47.73 138.85 47.73 138.85C89.38 138.85 112.52 138.85 117.15 138.85Z" id="d18OHe19Pm"></path><path d="M351.46 468.61C351.46 470.35 351.46 479.02 351.46 494.64L160.54 494.64C160.54 479.02 160.54 470.35 160.54 468.61C160.54 463.81 156.65 459.93 151.86 459.93C147.07 459.93 143.19 463.81 143.19 468.61C143.19 472.08 143.19 499.85 143.19 503.32C143.19 508.12 147.07 512 151.86 512C172.69 512 339.31 512 360.14 512C364.93 512 368.81 508.12 368.81 503.32C368.81 499.85 368.81 472.08 368.81 468.61C368.81 463.81 364.93 459.93 360.14 459.93C355.35 459.93 351.46 463.81 351.46 468.61Z" id="d3XrKqbWuu"></path><path d="M256 0C222.45 0 195.25 27.2 195.25 60.75C195.25 94.29 222.45 121.49 256 121.49C289.55 121.49 316.75 94.29 316.75 60.75C316.75 27.2 289.55 0 256 0Z" id="c2s69Cqci"></path><path d="M238.64 118.94C238.64 121.42 238.64 133.85 238.64 156.2L273.36 156.2C273.36 133.85 273.36 121.42 273.36 118.94C267.85 120.58 262.03 121.49 256 121.49C249.97 121.49 244.15 120.58 238.64 118.94Z" id="b2zgy467ot"></path><path d="M256 34.71C241.62 34.71 229.97 46.37 229.97 60.75C229.97 75.12 241.62 86.78 256 86.78C270.38 86.78 282.03 75.12 282.03 60.75C282.03 46.37 270.38 34.71 256 34.71Z" id="b1PFFWRpbL"></path><path d="M151.86 138.85C147.07 138.85 143.19 142.73 143.19 147.53C143.19 150.13 143.19 170.96 143.19 173.56C143.19 178.36 147.07 182.24 151.86 182.24C156.65 182.24 160.54 178.36 160.54 173.56C160.54 172.4 160.54 166.62 160.54 156.2L351.46 156.2C351.46 166.62 351.46 172.4 351.46 173.56C351.46 178.36 355.35 182.24 360.14 182.24C364.93 182.24 368.81 178.36 368.81 173.56C368.81 170.96 368.81 150.13 368.81 147.53C368.81 142.73 364.93 138.85 360.14 138.85C318.48 138.85 172.69 138.85 151.86 138.85Z" id="mU2RCynWX"></path><path d="M464.27 156.2C464.27 156.2 464.27 156.2 464.27 156.2C464.27 171.82 464.27 180.5 464.27 182.24C464.27 182.24 464.27 182.24 464.27 182.24C427.82 182.24 407.58 182.24 403.53 182.24C403.53 182.24 403.53 182.24 403.53 182.24C403.53 166.62 403.53 157.94 403.53 156.2C403.53 156.2 403.53 156.2 403.53 156.2C439.97 156.2 460.22 156.2 464.27 156.2Z" id="gtfe4l1wY"></path><path d="M256 286.37C241.62 286.37 229.97 298.03 229.97 312.41C229.97 326.78 241.62 338.44 256 338.44C270.38 338.44 282.03 326.78 282.03 312.41C282.03 298.03 270.38 286.37 256 286.37Z" id="b580p8HjRS"></path><path d="M256 390.51C246.41 390.51 238.64 398.28 238.64 407.86C238.64 417.45 246.41 425.22 256 425.22C265.59 425.22 273.36 417.45 273.36 407.86C273.36 398.28 265.59 390.51 256 390.51Z" id="a2VgeDJCHH"></path><path d="M375.26 210.03C369.34 211.68 365.47 217.35 366.09 223.46C367.08 234.94 374.94 326.74 375.92 338.22C376.54 342.9 374.38 347.5 370.4 350.03C366.42 352.55 361.33 352.53 357.37 349.97C348.18 343.73 274.68 293.76 265.49 287.51C260.93 284.39 254.81 284.91 250.84 288.76C241.72 297.44 168.74 366.9 159.62 375.58C155.91 379 150.46 379.75 145.96 377.44C141.47 375.14 138.89 370.29 139.5 365.28C140.51 350.93 148.6 236.12 149.61 221.77C150.05 216.4 147.06 211.33 142.14 209.12C129.44 203.69 27.86 160.2 15.16 154.76C10.59 152.65 7.66 148.08 7.66 143.04C7.66 138.01 10.59 133.44 15.16 131.33C27.84 125.9 129.32 82.45 142 77.02C146.99 74.78 149.99 69.61 149.46 64.17C148.46 52.54 140.49 -40.5 139.5 -52.13C138.88 -56.81 141.03 -61.42 145.02 -63.94C149 -66.46 154.09 -66.44 158.05 -63.89C167.19 -57.67 240.31 -7.96 249.45 -1.75C254.23 1.52 260.69 0.77 264.6 -3.5C276.37 -16.08 370.5 -116.69 382.26 -129.26C386.08 -133.19 392.07 -134.07 396.85 -131.39C401.63 -128.71 404.02 -123.16 402.67 -117.85C399.1 -99.66 370.59 45.84 367.02 64.02C365.89 69.53 368.46 75.14 373.38 77.86C387.35 85.28 499.07 144.67 513.04 152.1C517.57 154.62 520.15 159.61 519.58 164.76C519.01 169.91 515.4 174.22 510.43 175.68C483.4 182.55 388.78 206.6 375.26 210.03Z" id="c32S1E14ll"></path><path d="M186.25 162.6C183.85 161.55 171.84 156.3 150.22 146.85C171.78 137.42 183.76 132.18 186.16 131.14C204.16 122.82 214.88 103.98 212.83 84.26C212.65 82.13 211.76 71.5 210.16 52.37C224.27 62.16 232.11 67.61 233.68 68.7C240.56 73.52 248.76 76.12 257.17 76.14C268.92 76.03 280.1 71.01 287.99 62.29C289.74 60.38 298.5 50.81 314.28 33.6C308.93 61.45 305.96 76.93 305.36 80.02C301.29 100 310.46 120.35 328.13 130.53C330.9 132.03 344.76 139.55 369.7 153.09C350.04 158.19 339.12 161.03 336.94 161.59C315.51 167.75 301.65 188.46 304.12 210.61C304.29 212.66 305.15 222.9 306.69 241.33C292.37 231.38 284.41 225.86 282.82 224.75C275.94 219.92 267.74 217.33 259.33 217.31C248.47 217.36 238.05 221.66 230.32 229.29C228.98 230.6 222.28 237.11 210.22 248.83L212.99 208.77C206.99 183.48 198.08 168.09 186.25 162.6Z" id="e5u2yWWexN"></path></defs><g><g><g><use xlink:href="#alTD37uef" opacity="1" fill="#38454f" fill-opacity="1"></use><g><use xlink:href="#alTD37uef" opacity="1" fill-opacity="0" stroke="#000000" stroke-width="1" stroke-opacity="0"></use></g></g><g><use xlink:href="#b6PuBDovc" opacity="1" fill="#50508a" fill-opacity="1"></use><g><use xlink:href="#b6PuBDovc" opacity="1" fill-opacity="0" stroke="#283238" stroke-width="4" stroke-opacity="1"></use></g></g><g><use xlink:href="#b265nzhQV" opacity="1" fill="#546a79" fill-opacity="1"></use><g><use xlink:href="#b265nzhQV" opacity="1" fill-opacity="0" stroke="#000000" stroke-width="1" stroke-opacity="0"></use></g></g><g><use xlink:href="#bmPnhhpnP" opacity="1" fill="#546a79" fill-opacity="1"></use><g><use xlink:href="#bmPnhhpnP" opacity="1" fill-opacity="0" stroke="#000000" stroke-width="1" stroke-opacity="0"></use></g></g><g><use xlink:href="#b7tkpMVWV" opacity="1" fill="#434c6d" fill-opacity="1"></use><g><use xlink:href="#b7tkpMVWV" opacity="1" fill-opacity="0" stroke="#7383bf" stroke-width="2" stroke-opacity="1"></use></g></g><g><use xlink:href="#d18OHe19Pm" opacity="1" fill="#283238" fill-opacity="1"></use><g><use xlink:href="#d18OHe19Pm" opacity="1" fill-opacity="0" stroke="#000000" stroke-width="1" stroke-opacity="0"></use></g></g><g><use xlink:href="#d3XrKqbWuu" opacity="1" fill="#afb6bb" fill-opacity="1"></use><g><use xlink:href="#d3XrKqbWuu" opacity="1" fill-opacity="0" stroke="#000000" stroke-width="1" stroke-opacity="0"></use></g></g><g><use xlink:href="#c2s69Cqci" opacity="1" fill="#38454f" fill-opacity="1"></use><g><use xlink:href="#c2s69Cqci" opacity="1" fill-opacity="0" stroke="#000000" stroke-width="1" stroke-opacity="0"></use></g></g><g><use xlink:href="#b2zgy467ot" opacity="1" fill="#546a79" fill-opacity="1"></use><g><use xlink:href="#b2zgy467ot" opacity="1" fill-opacity="0" stroke="#000000" stroke-width="1" stroke-opacity="0"></use></g></g><g><use xlink:href="#b1PFFWRpbL" opacity="1" fill="#546a79" fill-opacity="1"></use><g><use xlink:href="#b1PFFWRpbL" opacity="1" fill-opacity="0" stroke="#000000" stroke-width="1" stroke-opacity="0"></use></g></g><g><use xlink:href="#mU2RCynWX" opacity="1" fill="#afb6bb" fill-opacity="1"></use><g><use xlink:href="#mU2RCynWX" opacity="1" fill-opacity="0" stroke="#000000" stroke-width="1" stroke-opacity="0"></use></g></g><g><use xlink:href="#gtfe4l1wY" opacity="1" fill="#283238" fill-opacity="1"></use><g><use xlink:href="#gtfe4l1wY" opacity="1" fill-opacity="0" stroke="#000000" stroke-width="1" stroke-opacity="0"></use></g></g><g><use xlink:href="#b580p8HjRS" opacity="1" fill="#71c3a9" fill-opacity="1"></use><g><use xlink:href="#b580p8HjRS" opacity="1" fill-opacity="0" stroke="#000000" stroke-width="1" stroke-opacity="0"></use></g></g><g><use xlink:href="#a2VgeDJCHH" opacity="1" fill="#d75e72" fill-opacity="1"></use><g><use xlink:href="#a2VgeDJCHH" opacity="1" fill-opacity="0" stroke="#000000" stroke-width="1" stroke-opacity="0"></use></g></g><g><use xlink:href="#c32S1E14ll" opacity="1" fill="#e64c3c" fill-opacity="1"></use><g><use xlink:href="#c32S1E14ll" opacity="1" fill-opacity="0" stroke="#000000" stroke-width="1" stroke-opacity="0"></use></g></g><g><use xlink:href="#e5u2yWWexN" opacity="1" fill="#f18d46" fill-opacity="1"></use><g><use xlink:href="#e5u2yWWexN" opacity="1" fill-opacity="0" stroke="#000000" stroke-width="1" stroke-opacity="0"></use></g></g></g></g></svg>